<?xml version="1.0" standalone="no"?>
<!DOCTYPE svg PUBLIC "-//W3C//DTD SVG 1.1//EN" "http://www.w3.org/Graphics/SVG/1.1/DTD/svg11.dtd">
<svg id="Nuovo" xmlns="http://www.w3.org/2000/svg" viewBox="0 0 986.67 422.87" width="986.6699829101562" height="422.8699951171875">
  <polygon points="178.95 318.99 204.62 318.99 204.62 93.57 178.95 93.57 178.95 138.67 169.02 132.93 142.45 97.19 133.62 112.49 100.83 93.57 0 93.57 0 119.24 93.95 119.24 120.78 134.73 111.57 150.67 156.94 155.61 178.95 168.31 178.95 255.08 102.74 299.08 102.74 208.38 77.07 208.38 77.07 422.87 102.74 422.87 102.74 328.72 178.95 284.72 178.95 318.99"/>
  <path d="M59.15,136.4H16.73c-8.98,23.2-13.9,48.41-13.9,74.75,0,31.71,7.13,61.77,19.88,88.68.04.08.08.17.12.25,2.61,5.49,5.45,10.85,8.52,16.07,3.5,5.96,7.3,11.73,11.36,17.29.61.84,1.23,1.67,1.85,2.5,4.07,5.41,8.41,10.62,12.98,15.6.78.85,1.56,1.69,2.36,2.53v-66.57c-11.03-23.16-17.19-49.04-17.19-76.35s5.89-52,16.44-74.75Z"/>
  <path d="M222.93,390.05c-7.15,0-14.21-.41-21.15-1.22-6.79-.79-13.46-1.95-20-3.47-22.55-5.22-43.47-14.65-61.88-27.41v40.29c19.16,9.41,39.96,16.01,61.88,19.25,6.57.97,13.24,1.64,20,1.99,3.71.19,7.45.29,11.21.29,69.98,0,131.98-33.96,170.17-86.18v-40.45c-4.18,8.04-8.97,15.73-14.3,23.01-32.75,44.78-85.91,73.9-145.93,73.9Z"/>
  <polygon points="426.09 304.45 426 304.4 426 93.57 400.33 93.57 400.33 317.49 486.65 367.33 587.55 367.33 587.55 343.32 493.4 343.32 426.09 304.45"/>
  <rect x="482.06" y="158.84" width="25.67" height="104.88"/>
  <polygon points="678.02 93.57 482.06 93.57 482.06 119.24 562.37 119.24 562.37 318.99 587.62 318.99 587.62 119.24 678.02 119.24 678.02 93.57"/>
  <path d="M212.99,2.54c-3.76,0-7.5.1-11.21.29-6.76.35-13.43,1.02-20,1.99-21.92,3.24-42.72,9.84-61.88,19.25-6.89,3.39-13.56,7.13-20,11.22-6.96,4.42-13.63,9.23-20,14.41-7.07,5.75-13.75,11.94-20,18.54-1.02,1.07-2.02,2.14-3.01,3.23-1.47,1.62-2.92,3.26-4.34,4.93h51.84c4.93-4.29,10.11-8.31,15.51-12.05,18.41-12.75,39.33-22.18,61.88-27.4,6.54-1.52,13.21-2.68,20-3.47,6.94-.81,14-1.22,21.15-1.22,45.39,0,86.87,16.65,118.55,44.14,7.09,6.15,13.68,12.84,19.72,20,5.33,6.31,10.22,12.99,14.63,20,2.62,4.15,5.06,8.4,7.33,12.77v-40.46c-3.08-4.23-6.33-8.33-9.72-12.31C334.88,31.22,277.31,2.54,212.99,2.54Z"/>
  <polygon points="877.02 101.4 802.32 144.53 802.32 93.57 776.65 93.57 776.65 318.99 802.32 318.99 802.32 279.84 818.13 288.97 808.97 304.82 853.16 309.62 853.3 309.75 854.11 309.75 877.02 322.97 877.02 422.87 902.69 422.87 902.69 310.07 902.68 308.96 901.64 307.82 866.95 287.79 839.87 251.34 830.85 266.95 802.32 250.47 802.32 174.17 898.11 118.86 901.6 116.84 902.69 115.75 902.69 0 877.02 0 877.02 101.4"/>
  <path d="M744.27,221.8c.15-.83.28-1.69.4-2.61.33-2.6.49-5.26.49-7.91,0-1.92-.09-3.89-.27-5.85-.13-1.48-.33-3.03-.61-4.61-.94-5.68-2.66-11.16-5.09-16.3-10.33-21.91-32.66-36.07-56.86-36.07-13.56,0-26.42,4.23-37.25,12.23l-.78.58c-5.34,4.07-9.97,8.92-13.76,14.44l-.87,1.28c-3.84,5.88-6.64,12.3-8.33,19.1-.39,1.58-.72,3.17-.97,4.72-.58,3.4-.88,6.92-.88,10.48s.3,7.09.88,10.46c1.52,9.17,5.01,17.71,10.36,25.39,4.14,5.96,9.26,11.13,15.22,15.39l.75.53h.02c10.51,7.24,22.8,11.06,35.61,11.06,16.37,0,31.87-6.26,43.65-17.64l2.71-2.61-23.63-13.63-1.48,1.05c-6.22,4.42-13.57,6.75-21.25,6.75-4.51,0-8.9-.8-13.07-2.39-6.41-2.44-12-6.62-16.18-12.1-2.22-2.91-3.97-6.07-5.22-9.43h95.98l.43-2.32ZM651.27,191.58l.94-1.39c3.71-5.3,8.74-9.52,14.56-12.24l.54-.24c4.73-2.12,9.78-3.2,15.02-3.2,14.86,0,28.18,8.86,33.93,22.56.19.46.37.92.54,1.38h-68.94c.89-2.39,2.03-4.69,3.41-6.87Z"/>
  <path d="M779.48,394.4c-4.33.31-8.71.47-13.12.47-62.04,0-116.79-31.18-149.43-78.72-4.49-6.52-8.55-13.35-12.15-20.45v37.24c38.25,52.66,100.66,86.94,171.15,86.94,1.19,0,2.37-.01,3.55-.04,6.75-.1,13.42-.52,20-1.25,21.23-2.34,41.51-7.8,60.36-15.91v-33.76c-18.26,11.02-38.63,18.91-60.36,22.93-6.55,1.21-13.22,2.07-20,2.55Z"/>
  <path d="M972.76,136.4c-1.61-4.17-3.36-8.28-5.24-12.31-1.2-2.6-2.45-5.16-3.75-7.69-3.56-6.9-7.49-13.58-11.76-20-1.46-2.19-2.95-4.35-4.49-6.47-.48-.68-.97-1.35-1.47-2.02h0c-2.92-3.95-5.97-7.78-9.15-11.51-1.2-1.41-2.42-2.8-3.67-4.18-4.25-4.72-8.72-9.25-13.38-13.57v58.78c3.83,6.09,7.3,12.42,10.39,18.97,11.08,23.44,17.28,49.65,17.28,77.3,0,35.38-10.14,68.38-27.67,96.27v53.65c4.15-3.84,8.14-7.84,11.97-12.01.05-.06.11-.12.16-.18,4.52-4.92,8.81-10.07,12.83-15.42.92-1.21,1.83-2.43,2.71-3.66,3.77-5.23,7.3-10.63,10.58-16.2,3.43-5.81,6.57-11.81,9.42-17.96,12.3-26.49,19.15-55.98,19.15-87.05,0-26.34-4.92-51.54-13.91-74.74Z"/>
  <path d="M766.36,32.54c4.41,0,8.79.16,13.12.47,6.78.48,13.45,1.34,20,2.55,21.73,4.02,42.1,11.91,60.36,22.93V19.59c-18.85-8.11-39.13-13.57-60.36-15.91-3.22-.36-6.47-.64-9.73-.85-4.57-.29-9.18-.44-13.82-.44-64.54,0-122.31,28.74-160.96,74.01h33.2c31.72-27.33,73.03-43.86,118.19-43.86Z"/>
  <path d="M298.71,274.12c15.03,0,29.58-5.4,40.97-15.2,5.43-4.67,9.98-10.17,13.54-16.37,5.45-9.46,8.33-20.28,8.33-31.27s-2.75-21.32-7.96-30.62c-3.47-6.23-7.95-11.78-13.31-16.5-11.48-10.13-26.24-15.71-41.57-15.71-22.29,0-43.11,11.98-54.33,31.26-3.61,6.19-6.11,12.89-7.42,19.91-.72,3.82-1.09,7.72-1.09,11.67,0,4.16.42,8.35,1.24,12.44,1.4,7,3.98,13.65,7.65,19.78,11.3,18.89,31.98,30.62,53.95,30.62ZM261.95,211.32v-.11c0-6.5,1.74-12.88,5-18.46,6.57-11.26,18.74-18.25,31.76-18.25,6.73,0,13.31,1.83,19.02,5.29,5.54,3.36,10.12,8.13,13.24,13.81,2.96,5.37,4.52,11.48,4.52,17.67s-1.68,12.71-4.85,18.25c-3.24,5.65-7.93,10.36-13.58,13.61-5.55,3.21-11.9,4.9-18.35,4.9-12.94,0-24.69-6.61-31.43-17.68-3.36-5.53-5.2-11.88-5.33-18.43,0-.2,0-.41,0-.62Z"/>
</svg>